<svg xmlns="http://www.w3.org/2000/svg" xmlns:xlink="http://www.w3.org/1999/xlink" viewBox="0,0,256,256" width="64px" height="64px" fill-rule="nonzero"><g fill="#d5d5d5" fill-rule="nonzero" stroke="none" stroke-width="1" stroke-linecap="butt" stroke-linejoin="miter" stroke-miterlimit="10" stroke-dasharray="" stroke-dashoffset="0" font-family="none" font-weight="none" font-size="none" text-anchor="none" style="mix-blend-mode: normal"><g transform="scale(3.55556,3.55556)"><path d="M7,10c-2.209,0 -4,1.791 -4,4c0,2.209 1.791,4 4,4h5.59375l3.7793,23.43359c0.707,4.385 4.44377,7.56641 8.88477,7.56641h26.74219c2.209,0 4,-1.791 4,-4c0,-2.209 -1.791,-4 -4,-4h-26.74219c-0.493,0 -0.90733,-0.3548 -0.98633,-0.8418l-0.50977,-3.1582h27.13867c4.277,0 7.98917,-3.04237 8.82617,-7.23437l2.19531,-10.98047c0.235,-1.175 -0.06813,-2.39331 -0.82812,-3.32031c-0.76,-0.927 -1.89575,-1.46484 -3.09375,-1.46484h-37.94727l-0.10352,-0.63672c-0.312,-1.938 -1.98622,-3.36328 -3.94922,-3.36328zM21.3418,22h31.7793l-1.24023,6.19727c-0.092,0.465 -0.50547,0.80273 -0.98047,0.80273h-28.42969zM27,51c-2.761,0 -5,2.239 -5,5c0,2.761 2.239,5 5,5c2.761,0 5,-2.239 5,-5c0,-2.761 -2.239,-5 -5,-5zM49,51c-2.761,0 -5,2.239 -5,5c0,2.761 2.239,5 5,5c2.761,0 5,-2.239 5,-5c0,-2.761 -2.239,-5 -5,-5z"></path></g></g></svg>